<?xml version="1.0" encoding="UTF-8"?>
<svg id="Layer_1" xmlns="http://www.w3.org/2000/svg" viewBox="0 0 16 16">
    <defs>
        <style>
            .cls-1 {
                fill: #fff;
            }

            .cls-2 {
                fill: #6d6e71;
            }
        </style>
    </defs>
    <circle class="cls-2" cx="8" cy="8" r="8" />
    <g>
        <path class="cls-1"
            d="M5.91,9.8c-.13,0-.26,0-.4-.03-1.47-.22-2.49-1.59-2.27-3.06,.22-1.47,1.59-2.49,3.06-2.27l-.03,.21c-1.36-.2-2.62,.74-2.82,2.09-.2,1.36,.74,2.62,2.09,2.82,1.36,.2,2.62-.74,2.82-2.09l.21,.03c-.2,1.34-1.35,2.3-2.67,2.3" />
        <path class="cls-1"
            d="M12.79,12.46h-.3l-3.32-3.32h.27c.45,.02,.8-.09,1.05-.34,.43-.43,.41-1.1,.41-1.11,0-.45-.12-.79-.37-1.02-.38-.35-.94-.31-.94-.31H5.45l.11-.21h4.01c.07,0,.66-.04,1.1,.36,.29,.27,.44,.66,.44,1.17,0,.03,.02,.77-.47,1.26-.24,.24-.56,.38-.95,.41l3.1,3.1Z" />
        <path class="cls-1"
            d="M9.07,3.75c-.25-.25-.63-.28-.91-.09l.15,.15c.08-.04,.16-.06,.25-.06,.13,0,.26,.05,.35,.15,.16,.16,.19,.41,.08,.6l.15,.15c.19-.28,.16-.66-.09-.91m-.26,.94c-.19,.11-.44,.08-.6-.08-.09-.1-.15-.22-.15-.35,0-.09,.02-.17,.07-.25l-.15-.15c-.08,.12-.12,.26-.12,.4,0,.19,.07,.37,.21,.5,.14,.14,.32,.21,.5,.21,.09,0,.18-.02,.27-.05,.05-.02,.09-.04,.13-.07l-.16-.16Z" />
    </g>
</svg>